<?xml version="1.0" encoding="UTF-8"?>
<svg xmlns="http://www.w3.org/2000/svg"
     xmlns:xlink="http://www.w3.org/1999/xlink"
     xmlns:ev="http://www.w3.org/2001/xml-events"
     version="1.1"
     baseProfile="full"
     width="800"
     height="600">

<rect x="0" y="0" width="800" height="600" stroke="black" stroke-width="10" fill="white" />
<line x1="0" y1="0" x2="0" y2="600" stroke="lightgrey" stroke-width="2" />
<line x1="20" y1="0" x2="20" y2="600" stroke="lightgrey" stroke-width="2" />
<line x1="40" y1="0" x2="40" y2="600" stroke="lightgrey" stroke-width="2" />
<line x1="60" y1="0" x2="60" y2="600" stroke="lightgrey" stroke-width="2" />
<line x1="80" y1="0" x2="80" y2="600" stroke="lightgrey" stroke-width="2" />
<line x1="100" y1="0" x2="100" y2="600" stroke="lightgrey" stroke-width="2" />
<line x1="120" y1="0" x2="120" y2="600" stroke="lightgrey" stroke-width="2" />
<line x1="140" y1="0" x2="140" y2="600" stroke="lightgrey" stroke-width="2" />
<line x1="160" y1="0" x2="160" y2="600" stroke="lightgrey" stroke-width="2" />
<line x1="180" y1="0" x2="180" y2="600" stroke="lightgrey" stroke-width="2" />
<line x1="200" y1="0" x2="200" y2="600" stroke="lightgrey" stroke-width="2" />
<line x1="220" y1="0" x2="220" y2="600" stroke="lightgrey" stroke-width="2" />
<line x1="240" y1="0" x2="240" y2="600" stroke="lightgrey" stroke-width="2" />
<line x1="260" y1="0" x2="260" y2="600" stroke="lightgrey" stroke-width="2" />
<line x1="280" y1="0" x2="280" y2="600" stroke="lightgrey" stroke-width="2" />
<line x1="300" y1="0" x2="300" y2="600" stroke="lightgrey" stroke-width="2" />
<line x1="320" y1="0" x2="320" y2="600" stroke="lightgrey" stroke-width="2" />
<line x1="340" y1="0" x2="340" y2="600" stroke="lightgrey" stroke-width="2" />
<line x1="360" y1="0" x2="360" y2="600" stroke="lightgrey" stroke-width="2" />
<line x1="380" y1="0" x2="380" y2="600" stroke="lightgrey" stroke-width="2" />
<line x1="400" y1="0" x2="400" y2="600" stroke="lightgrey" stroke-width="2" />
<line x1="420" y1="0" x2="420" y2="600" stroke="lightgrey" stroke-width="2" />
<line x1="440" y1="0" x2="440" y2="600" stroke="lightgrey" stroke-width="2" />
<line x1="460" y1="0" x2="460" y2="600" stroke="lightgrey" stroke-width="2" />
<line x1="480" y1="0" x2="480" y2="600" stroke="lightgrey" stroke-width="2" />
<line x1="500" y1="0" x2="500" y2="600" stroke="lightgrey" stroke-width="2" />
<line x1="520" y1="0" x2="520" y2="600" stroke="lightgrey" stroke-width="2" />
<line x1="540" y1="0" x2="540" y2="600" stroke="lightgrey" stroke-width="2" />
<line x1="560" y1="0" x2="560" y2="600" stroke="lightgrey" stroke-width="2" />
<line x1="580" y1="0" x2="580" y2="600" stroke="lightgrey" stroke-width="2" />
<line x1="600" y1="0" x2="600" y2="600" stroke="lightgrey" stroke-width="2" />
<line x1="620" y1="0" x2="620" y2="600" stroke="lightgrey" stroke-width="2" />
<line x1="640" y1="0" x2="640" y2="600" stroke="lightgrey" stroke-width="2" />
<line x1="660" y1="0" x2="660" y2="600" stroke="lightgrey" stroke-width="2" />
<line x1="680" y1="0" x2="680" y2="600" stroke="lightgrey" stroke-width="2" />
<line x1="700" y1="0" x2="700" y2="600" stroke="lightgrey" stroke-width="2" />
<line x1="720" y1="0" x2="720" y2="600" stroke="lightgrey" stroke-width="2" />
<line x1="740" y1="0" x2="740" y2="600" stroke="lightgrey" stroke-width="2" />
<line x1="760" y1="0" x2="760" y2="600" stroke="lightgrey" stroke-width="2" />
<line x1="780" y1="0" x2="780" y2="600" stroke="lightgrey" stroke-width="2" />
<line x1="0" y1="0" x2="800" y2="0" stroke="lightgrey" stroke-width="2" />
<line x1="0" y1="20" x2="800" y2="20" stroke="lightgrey" stroke-width="2" />
<line x1="0" y1="40" x2="800" y2="40" stroke="lightgrey" stroke-width="2" />
<line x1="0" y1="60" x2="800" y2="60" stroke="lightgrey" stroke-width="2" />
<line x1="0" y1="80" x2="800" y2="80" stroke="lightgrey" stroke-width="2" />
<line x1="0" y1="100" x2="800" y2="100" stroke="lightgrey" stroke-width="2" />
<line x1="0" y1="120" x2="800" y2="120" stroke="lightgrey" stroke-width="2" />
<line x1="0" y1="140" x2="800" y2="140" stroke="lightgrey" stroke-width="2" />
<line x1="0" y1="160" x2="800" y2="160" stroke="lightgrey" stroke-width="2" />
<line x1="0" y1="180" x2="800" y2="180" stroke="lightgrey" stroke-width="2" />
<line x1="0" y1="200" x2="800" y2="200" stroke="lightgrey" stroke-width="2" />
<line x1="0" y1="220" x2="800" y2="220" stroke="lightgrey" stroke-width="2" />
<line x1="0" y1="240" x2="800" y2="240" stroke="lightgrey" stroke-width="2" />
<line x1="0" y1="260" x2="800" y2="260" stroke="lightgrey" stroke-width="2" />
<line x1="0" y1="280" x2="800" y2="280" stroke="lightgrey" stroke-width="2" />
<line x1="0" y1="300" x2="800" y2="300" stroke="lightgrey" stroke-width="2" />
<line x1="0" y1="320" x2="800" y2="320" stroke="lightgrey" stroke-width="2" />
<line x1="0" y1="340" x2="800" y2="340" stroke="lightgrey" stroke-width="2" />
<line x1="0" y1="360" x2="800" y2="360" stroke="lightgrey" stroke-width="2" />
<line x1="0" y1="380" x2="800" y2="380" stroke="lightgrey" stroke-width="2" />
<line x1="0" y1="400" x2="800" y2="400" stroke="lightgrey" stroke-width="2" />
<line x1="0" y1="420" x2="800" y2="420" stroke="lightgrey" stroke-width="2" />
<line x1="0" y1="440" x2="800" y2="440" stroke="lightgrey" stroke-width="2" />
<line x1="0" y1="460" x2="800" y2="460" stroke="lightgrey" stroke-width="2" />
<line x1="0" y1="480" x2="800" y2="480" stroke="lightgrey" stroke-width="2" />
<line x1="0" y1="500" x2="800" y2="500" stroke="lightgrey" stroke-width="2" />
<line x1="0" y1="520" x2="800" y2="520" stroke="lightgrey" stroke-width="2" />
<line x1="0" y1="540" x2="800" y2="540" stroke="lightgrey" stroke-width="2" />
<line x1="0" y1="560" x2="800" y2="560" stroke="lightgrey" stroke-width="2" />
<line x1="0" y1="580" x2="800" y2="580" stroke="lightgrey" stroke-width="2" />
<line x1="400" y1="300" x2="400" y2="160" stroke="black" stroke-width="2" />
<line x1="400" y1="300" x2="400" y2="500" stroke="black" stroke-width="2" />
<line x1="400" y1="300" x2="300" y2="300" stroke="black" stroke-width="2" />
<line x1="400" y1="300" x2="580" y2="300" stroke="black" stroke-width="2" />
<text x="417" y="310" fill="black" font-size="12"  transform="">1</text>
<text x="437" y="310" fill="black" font-size="12"  transform="">2</text>
<text x="457" y="310" fill="black" font-size="12"  transform="">3</text>
<text x="477" y="310" fill="black" font-size="12"  transform="">4</text>
<text x="497" y="310" fill="black" font-size="12"  transform="">5</text>
<text x="517" y="310" fill="black" font-size="12"  transform="">6</text>
<text x="537" y="310" fill="black" font-size="12"  transform="">7</text>
<text x="557" y="310" fill="black" font-size="12"  transform="">8</text>
<text x="577" y="310" fill="black" font-size="12"  transform="">9</text>
<text x="376" y="310" fill="black" font-size="12"  transform="">-1</text>
<text x="356" y="310" fill="black" font-size="12"  transform="">-2</text>
<text x="336" y="310" fill="black" font-size="12"  transform="">-3</text>
<text x="316" y="310" fill="black" font-size="12"  transform="">-4</text>
<text x="296" y="310" fill="black" font-size="12"  transform="">-5</text>
<text x="410" y="284" fill="black" font-size="12"  transform="">1</text>
<text x="410" y="264" fill="black" font-size="12"  transform="">2</text>
<text x="410" y="244" fill="black" font-size="12"  transform="">3</text>
<text x="410" y="224" fill="black" font-size="12"  transform="">4</text>
<text x="410" y="204" fill="black" font-size="12"  transform="">5</text>
<text x="410" y="184" fill="black" font-size="12"  transform="">6</text>
<text x="410" y="164" fill="black" font-size="12"  transform="">7</text>
<text x="406" y="324" fill="black" font-size="12"  transform="">-1</text>
<text x="406" y="344" fill="black" font-size="12"  transform="">-2</text>
<text x="406" y="364" fill="black" font-size="12"  transform="">-3</text>
<text x="406" y="384" fill="black" font-size="12"  transform="">-4</text>
<text x="406" y="404" fill="black" font-size="12"  transform="">-5</text>
<text x="406" y="424" fill="black" font-size="12"  transform="">-6</text>
<text x="406" y="444" fill="black" font-size="12"  transform="">-7</text>
<text x="406" y="464" fill="black" font-size="12"  transform="">-8</text>
<text x="406" y="484" fill="black" font-size="12"  transform="">-9</text>
<line x1="300" y1="-2147483648" x2="320" y2="-2147483648" stroke="red" stroke-width="2" />
<text x="297" y="-2147483645" fill="red" font-size="12"  transform="">o</text>
<line x1="320" y1="-2147483648" x2="340" y2="-2147483648" stroke="red" stroke-width="2" />
<text x="317" y="-2147483645" fill="red" font-size="12"  transform="">o</text>
<line x1="340" y1="-2147483648" x2="360" y2="-2147483648" stroke="red" stroke-width="2" />
<text x="337" y="-2147483645" fill="red" font-size="12"  transform="">o</text>
<line x1="360" y1="-2147483648" x2="380" y2="-2147483648" stroke="red" stroke-width="2" />
<text x="357" y="-2147483645" fill="red" font-size="12"  transform="">o</text>
<line x1="380" y1="-2147483648" x2="400" y2="-2147483648" stroke="red" stroke-width="2" />
<text x="377" y="-2147483645" fill="red" font-size="12"  transform="">o</text>
<line x1="400" y1="-2147483648" x2="420" y2="280" stroke="red" stroke-width="2" />
<text x="397" y="-2147483645" fill="red" font-size="12"  transform="">o</text>
<line x1="420" y1="280" x2="440" y2="280" stroke="red" stroke-width="2" />
<text x="417" y="283" fill="red" font-size="12"  transform="">o</text>
<line x1="440" y1="280" x2="460" y2="260" stroke="red" stroke-width="2" />
<text x="437" y="283" fill="red" font-size="12"  transform="">o</text>
<line x1="460" y1="260" x2="480" y2="180" stroke="red" stroke-width="2" />
<text x="457" y="263" fill="red" font-size="12"  transform="">o</text>
<line x1="480" y1="180" x2="500" y2="-180" stroke="red" stroke-width="2" />
<text x="477" y="183" fill="red" font-size="12"  transform="">o</text>
<text x="582" y="304" fill="black" font-size="12"  transform="">> x</text>
<text x="397" y="160" fill="black" font-size="12"  transform="">^</text>
<text x="397" y="148" fill="black" font-size="12"  transform="">y</text>
</svg>
