<?xml version="1.0" encoding="UTF-8"?>
<svg xmlns="http://www.w3.org/2000/svg"
     xmlns:xlink="http://www.w3.org/1999/xlink"
     xmlns:ev="http://www.w3.org/2001/xml-events"
     version="1.1"
     baseProfile="full"
     width="800"
     height="600">

<rect x="0" y="0" width="800" height="600" stroke="black" stroke-width="10" fill="white" />
<line x1="0" y1="0" x2="0" y2="600" stroke="lightgrey" stroke-width="1" />
<line x1="25" y1="0" x2="25" y2="600" stroke="lightgrey" stroke-width="1" />
<line x1="50" y1="0" x2="50" y2="600" stroke="lightgrey" stroke-width="1" />
<line x1="75" y1="0" x2="75" y2="600" stroke="lightgrey" stroke-width="1" />
<line x1="100" y1="0" x2="100" y2="600" stroke="lightgrey" stroke-width="1" />
<line x1="125" y1="0" x2="125" y2="600" stroke="lightgrey" stroke-width="1" />
<line x1="150" y1="0" x2="150" y2="600" stroke="lightgrey" stroke-width="1" />
<line x1="175" y1="0" x2="175" y2="600" stroke="lightgrey" stroke-width="1" />
<line x1="200" y1="0" x2="200" y2="600" stroke="lightgrey" stroke-width="1" />
<line x1="225" y1="0" x2="225" y2="600" stroke="lightgrey" stroke-width="1" />
<line x1="250" y1="0" x2="250" y2="600" stroke="lightgrey" stroke-width="1" />
<line x1="275" y1="0" x2="275" y2="600" stroke="lightgrey" stroke-width="1" />
<line x1="300" y1="0" x2="300" y2="600" stroke="lightgrey" stroke-width="1" />
<line x1="325" y1="0" x2="325" y2="600" stroke="lightgrey" stroke-width="1" />
<line x1="350" y1="0" x2="350" y2="600" stroke="lightgrey" stroke-width="1" />
<line x1="375" y1="0" x2="375" y2="600" stroke="lightgrey" stroke-width="1" />
<line x1="400" y1="0" x2="400" y2="600" stroke="lightgrey" stroke-width="1" />
<line x1="425" y1="0" x2="425" y2="600" stroke="lightgrey" stroke-width="1" />
<line x1="450" y1="0" x2="450" y2="600" stroke="lightgrey" stroke-width="1" />
<line x1="475" y1="0" x2="475" y2="600" stroke="lightgrey" stroke-width="1" />
<line x1="500" y1="0" x2="500" y2="600" stroke="lightgrey" stroke-width="1" />
<line x1="525" y1="0" x2="525" y2="600" stroke="lightgrey" stroke-width="1" />
<line x1="550" y1="0" x2="550" y2="600" stroke="lightgrey" stroke-width="1" />
<line x1="575" y1="0" x2="575" y2="600" stroke="lightgrey" stroke-width="1" />
<line x1="600" y1="0" x2="600" y2="600" stroke="lightgrey" stroke-width="1" />
<line x1="625" y1="0" x2="625" y2="600" stroke="lightgrey" stroke-width="1" />
<line x1="650" y1="0" x2="650" y2="600" stroke="lightgrey" stroke-width="1" />
<line x1="675" y1="0" x2="675" y2="600" stroke="lightgrey" stroke-width="1" />
<line x1="700" y1="0" x2="700" y2="600" stroke="lightgrey" stroke-width="1" />
<line x1="725" y1="0" x2="725" y2="600" stroke="lightgrey" stroke-width="1" />
<line x1="750" y1="0" x2="750" y2="600" stroke="lightgrey" stroke-width="1" />
<line x1="775" y1="0" x2="775" y2="600" stroke="lightgrey" stroke-width="1" />
<line x1="0" y1="0" x2="800" y2="0" stroke="lightgrey" stroke-width="1" />
<line x1="0" y1="25" x2="800" y2="25" stroke="lightgrey" stroke-width="1" />
<line x1="0" y1="50" x2="800" y2="50" stroke="lightgrey" stroke-width="1" />
<line x1="0" y1="75" x2="800" y2="75" stroke="lightgrey" stroke-width="1" />
<line x1="0" y1="100" x2="800" y2="100" stroke="lightgrey" stroke-width="1" />
<line x1="0" y1="125" x2="800" y2="125" stroke="lightgrey" stroke-width="1" />
<line x1="0" y1="150" x2="800" y2="150" stroke="lightgrey" stroke-width="1" />
<line x1="0" y1="175" x2="800" y2="175" stroke="lightgrey" stroke-width="1" />
<line x1="0" y1="200" x2="800" y2="200" stroke="lightgrey" stroke-width="1" />
<line x1="0" y1="225" x2="800" y2="225" stroke="lightgrey" stroke-width="1" />
<line x1="0" y1="250" x2="800" y2="250" stroke="lightgrey" stroke-width="1" />
<line x1="0" y1="275" x2="800" y2="275" stroke="lightgrey" stroke-width="1" />
<line x1="0" y1="300" x2="800" y2="300" stroke="lightgrey" stroke-width="1" />
<line x1="0" y1="325" x2="800" y2="325" stroke="lightgrey" stroke-width="1" />
<line x1="0" y1="350" x2="800" y2="350" stroke="lightgrey" stroke-width="1" />
<line x1="0" y1="375" x2="800" y2="375" stroke="lightgrey" stroke-width="1" />
<line x1="0" y1="400" x2="800" y2="400" stroke="lightgrey" stroke-width="1" />
<line x1="0" y1="425" x2="800" y2="425" stroke="lightgrey" stroke-width="1" />
<line x1="0" y1="450" x2="800" y2="450" stroke="lightgrey" stroke-width="1" />
<line x1="0" y1="475" x2="800" y2="475" stroke="lightgrey" stroke-width="1" />
<line x1="0" y1="500" x2="800" y2="500" stroke="lightgrey" stroke-width="1" />
<line x1="0" y1="525" x2="800" y2="525" stroke="lightgrey" stroke-width="1" />
<line x1="0" y1="550" x2="800" y2="550" stroke="lightgrey" stroke-width="1" />
<line x1="0" y1="575" x2="800" y2="575" stroke="lightgrey" stroke-width="1" />
<line x1="400" y1="300" x2="400" y2="175" stroke="black" stroke-width="1" />
<line x1="400" y1="300" x2="400" y2="425" stroke="black" stroke-width="1" />
<line x1="400" y1="300" x2="275" y2="300" stroke="black" stroke-width="1" />
<line x1="400" y1="300" x2="525" y2="300" stroke="black" stroke-width="1" />
<text x="422" y="312" fill="black" font-size="12"  transform="">1</text>
<text x="447" y="312" fill="black" font-size="12"  transform="">2</text>
<text x="472" y="312" fill="black" font-size="12"  transform="">3</text>
<text x="497" y="312" fill="black" font-size="12"  transform="">4</text>
<text x="522" y="312" fill="black" font-size="12"  transform="">5</text>
<text x="371" y="312" fill="black" font-size="12"  transform="">-1</text>
<text x="346" y="312" fill="black" font-size="12"  transform="">-2</text>
<text x="321" y="312" fill="black" font-size="12"  transform="">-3</text>
<text x="296" y="312" fill="black" font-size="12"  transform="">-4</text>
<text x="271" y="312" fill="black" font-size="12"  transform="">-5</text>
<text x="412" y="279" fill="black" font-size="12"  transform="">1</text>
<text x="412" y="254" fill="black" font-size="12"  transform="">2</text>
<text x="412" y="229" fill="black" font-size="12"  transform="">3</text>
<text x="412" y="204" fill="black" font-size="12"  transform="">4</text>
<text x="412" y="179" fill="black" font-size="12"  transform="">5</text>
<text x="408" y="329" fill="black" font-size="12"  transform="">-1</text>
<text x="408" y="354" fill="black" font-size="12"  transform="">-2</text>
<text x="408" y="379" fill="black" font-size="12"  transform="">-3</text>
<text x="408" y="404" fill="black" font-size="12"  transform="">-4</text>
<text x="408" y="429" fill="black" font-size="12"  transform="">-5</text>
<text x="527" y="304" fill="black" font-size="12"  transform="">> x</text>
<text x="397" y="175" fill="black" font-size="12"  transform="">^</text>
<text x="397" y="163" fill="black" font-size="12"  transform="">y</text>
</svg>
